<?xml version="1.0" encoding="utf-8"?>
<!-- Generator: Adobe Illustrator 22.0.0, SVG Export Plug-In . SVG Version: 6.00 Build 0)  -->
<svg version="1.1" id="Layer_1" xmlns="http://www.w3.org/2000/svg" xmlns:xlink="http://www.w3.org/1999/xlink" x="0px" y="0px"
	 viewBox="0 0 1259.8 1080" style="enable-background:new 0 0 1259.8 1080;" xml:space="preserve">
<style type="text/css">
	.st0{fill:#CCCCCC;}
	.st1{fill:#BCA047;}
</style>
<g>
	<g>
		<path class="st0" d="M726.8,399c21.7,22.3,34.3,52.9,33.2,85.8c-2.2,65.8-59.4,117.3-127.8,115c-40.2-1.4-75.4-21.1-97-50.5
			c18.7,44,62.9,75.7,115.4,77.4c71.3,2.4,131-51.3,133.3-120C785.3,462.4,762.6,422.2,726.8,399z"/>
	</g>
	<g>
		<path class="st1" d="M740.4,421.2c18.7,24.9,27.3,56.9,22,89.4c-10.7,65-74.2,108.7-141.8,97.6c-39.8-6.5-72.2-30.6-90-62.5
			c13,46,52.8,83.2,104.8,91.7c70.6,11.6,136.8-34,147.9-101.8C790.5,491.6,773,448.8,740.4,421.2z"/>
	</g>
	<path class="st1" d="M628.2,293.3c-121.7,0-220.4,98.7-220.4,220.4s98.7,220.4,220.4,220.4s220.4-98.7,220.4-220.4
		S749.9,293.3,628.2,293.3z M628.2,658.8c-80.1,0-145.1-65-145.1-145.1s65-145.1,145.1-145.1c80.1,0,145.1,65,145.1,145.1
		S708.3,658.8,628.2,658.8z"/>
	<circle class="st1" cx="805.5" cy="740.4" r="46.4"/>
</g>
<g>
	<path class="st1" d="M565.5,527.1h6.1v4.9H553v-4.9h7.1v-37H560l-12.7,27.8l-12.7-27.8h-0.2v37h7.2v4.9H523v-4.9h6.1v-42.3H523
		v-4.9h12.4l11.9,25.9l11.9-25.9h12.4v4.9h-6.1V527.1z"/>
	<path class="st1" d="M619.4,527.1h4.3v4.9h-17.5v-4.9h7.5l-4.2-11.2h-20.6l-4.1,11.2h7.5v4.9H575v-4.9h4.3l19.7-52L619.4,527.1z
		 M599,487.1l-8.5,23.9h17.3L599,487.1z"/>
	<path class="st1" d="M653.7,479.9v4.9h-9.8v42.3h13.7c9.5,0,9.3-1.6,9.3-10.9v-2.4h5.4v18.2h-43.1v-4.9h9.4v-42.3h-9.4v-4.9H653.7z
		"/>
	<path class="st1" d="M705.8,479.9v4.9H696v42.3h13.7c9.5,0,9.3-1.6,9.3-10.9v-2.4h5.4v18.2h-43.1v-4.9h9.4v-42.3h-9.4v-4.9H705.8z"
		/>
</g>
</svg>
